<mxfile host="app.diagrams.net" modified="2024-04-05T23:07:23.360Z" agent="Mozilla/5.0 (Windows NT 10.0; Win64; x64) AppleWebKit/537.36 (KHTML, like Gecko) Chrome/123.0.0.0 Safari/537.36" etag="-xb8YUg483Fe19bctSb5" version="24.2.2" type="device">
  <diagram name="Page-1" id="5ctHnmvSYi1qNaNkAI-4">
    <mxGraphModel dx="2250" dy="823" grid="0" gridSize="10" guides="1" tooltips="1" connect="1" arrows="1" fold="1" page="1" pageScale="1" pageWidth="850" pageHeight="1100" math="0" shadow="0">
      <root>
        <mxCell id="0" />
        <mxCell id="1" parent="0" />
        <mxCell id="KsGMaPwchapJVoFfp-x0-2" value="" style="verticalLabelPosition=bottom;verticalAlign=top;html=1;shape=mxgraph.basic.rect;fillColor2=none;strokeWidth=4;size=20;indent=5;fillColor=none;" parent="1" vertex="1">
          <mxGeometry x="-290" y="280" width="590" height="280" as="geometry" />
        </mxCell>
        <mxCell id="KsGMaPwchapJVoFfp-x0-4" value="&lt;font style=&quot;font-size: 50px;&quot;&gt;&lt;b&gt;MCU&lt;/b&gt;&lt;/font&gt;" style="text;html=1;align=center;verticalAlign=middle;resizable=0;points=[];autosize=1;strokeColor=none;fillColor=none;" parent="1" vertex="1">
          <mxGeometry x="-45" y="210" width="140" height="70" as="geometry" />
        </mxCell>
        <mxCell id="KsGMaPwchapJVoFfp-x0-5" value="&lt;font style=&quot;font-size: 30px;&quot;&gt;UART&lt;/font&gt;" style="rounded=0;whiteSpace=wrap;html=1;fillColor=none;strokeWidth=3;" parent="1" vertex="1">
          <mxGeometry x="-260" y="420" width="160" height="80" as="geometry" />
        </mxCell>
        <mxCell id="KsGMaPwchapJVoFfp-x0-9" style="edgeStyle=orthogonalEdgeStyle;rounded=0;orthogonalLoop=1;jettySize=auto;html=1;exitX=0;exitY=0.5;exitDx=0;exitDy=0;entryX=1;entryY=0.25;entryDx=0;entryDy=0;strokeWidth=3;" parent="1" source="KsGMaPwchapJVoFfp-x0-6" target="KsGMaPwchapJVoFfp-x0-8" edge="1">
          <mxGeometry relative="1" as="geometry" />
        </mxCell>
        <mxCell id="KsGMaPwchapJVoFfp-x0-6" value="&lt;font style=&quot;font-size: 30px;&quot;&gt;Timer0&lt;/font&gt;" style="rounded=0;whiteSpace=wrap;html=1;fillColor=none;strokeWidth=3;" parent="1" vertex="1">
          <mxGeometry x="-260" y="320" width="160" height="80" as="geometry" />
        </mxCell>
        <mxCell id="KsGMaPwchapJVoFfp-x0-7" value="&lt;font style=&quot;font-size: 30px;&quot;&gt;DIO&lt;/font&gt;" style="rounded=0;whiteSpace=wrap;html=1;fillColor=none;strokeWidth=3;" parent="1" vertex="1">
          <mxGeometry x="-5" y="420" width="160" height="80" as="geometry" />
        </mxCell>
        <mxCell id="KsGMaPwchapJVoFfp-x0-8" value="&lt;span style=&quot;font-size: 30px;&quot;&gt;ESP8266&lt;/span&gt;" style="rounded=0;whiteSpace=wrap;html=1;fillColor=none;strokeWidth=3;" parent="1" vertex="1">
          <mxGeometry x="-580" y="370" width="160" height="80" as="geometry" />
        </mxCell>
        <mxCell id="KsGMaPwchapJVoFfp-x0-10" style="edgeStyle=orthogonalEdgeStyle;rounded=0;orthogonalLoop=1;jettySize=auto;html=1;exitX=0;exitY=0.5;exitDx=0;exitDy=0;entryX=1.036;entryY=0.639;entryDx=0;entryDy=0;entryPerimeter=0;strokeWidth=3;" parent="1" source="KsGMaPwchapJVoFfp-x0-5" target="KsGMaPwchapJVoFfp-x0-8" edge="1">
          <mxGeometry relative="1" as="geometry" />
        </mxCell>
        <mxCell id="KsGMaPwchapJVoFfp-x0-11" value="&lt;span style=&quot;font-size: 30px;&quot;&gt;LCD&lt;/span&gt;" style="rounded=0;whiteSpace=wrap;html=1;fillColor=none;strokeWidth=3;" parent="1" vertex="1">
          <mxGeometry x="-19" y="620" width="160" height="80" as="geometry" />
        </mxCell>
        <mxCell id="KsGMaPwchapJVoFfp-x0-12" style="edgeStyle=orthogonalEdgeStyle;rounded=0;orthogonalLoop=1;jettySize=auto;html=1;exitX=0.25;exitY=1;exitDx=0;exitDy=0;entryX=0.341;entryY=0;entryDx=0;entryDy=0;entryPerimeter=0;strokeWidth=3;" parent="1" source="KsGMaPwchapJVoFfp-x0-7" target="KsGMaPwchapJVoFfp-x0-11" edge="1">
          <mxGeometry relative="1" as="geometry" />
        </mxCell>
        <mxCell id="PUsRd20ykurBh9HkIk6Q-3" style="edgeStyle=orthogonalEdgeStyle;rounded=0;orthogonalLoop=1;jettySize=auto;html=1;exitX=1;exitY=0.5;exitDx=0;exitDy=0;entryX=0;entryY=0.5;entryDx=0;entryDy=0;strokeWidth=3;" parent="1" source="PUsRd20ykurBh9HkIk6Q-1" target="PUsRd20ykurBh9HkIk6Q-2" edge="1">
          <mxGeometry relative="1" as="geometry" />
        </mxCell>
        <mxCell id="PUsRd20ykurBh9HkIk6Q-1" value="&lt;font style=&quot;font-size: 30px;&quot;&gt;ADC&lt;/font&gt;" style="rounded=0;whiteSpace=wrap;html=1;fillColor=none;strokeWidth=3;" parent="1" vertex="1">
          <mxGeometry x="40" y="310" width="160" height="80" as="geometry" />
        </mxCell>
        <mxCell id="PUsRd20ykurBh9HkIk6Q-2" value="&lt;span style=&quot;font-size: 30px;&quot;&gt;Potentiometer&lt;/span&gt;" style="rounded=0;whiteSpace=wrap;html=1;fillColor=none;strokeWidth=3;" parent="1" vertex="1">
          <mxGeometry x="390" y="310" width="210" height="80" as="geometry" />
        </mxCell>
      </root>
    </mxGraphModel>
  </diagram>
</mxfile>
